<?xml version="1.0" standalone="no"?>
<!DOCTYPE svg PUBLIC "-//W3C//DTD SVG 20010904//EN"
 "http://www.w3.org/TR/2001/REC-SVG-20010904/DTD/svg10.dtd">
<svg version="1.0" xmlns="http://www.w3.org/2000/svg"
 width="2400.000000pt" height="3000.000000pt" viewBox="0 0 2400.000000 3000.000000"
 preserveAspectRatio="xMidYMid meet">
<metadata>
Created by potrace 1.16, written by Peter Selinger 2001-2019
</metadata>
<g transform="translate(0.000000,3000.000000) scale(0.100000,-0.100000)"
fill="#000000" stroke="none">
<path d="M12445 26200 c-168 -6 -430 -25 -625 -44 -317 -32 -860 -118 -1175
-186 -393 -84 -477 -103 -555 -125 -47 -13 -148 -40 -225 -60 -77 -20 -204
-56 -282 -81 -334 -103 -435 -135 -456 -144 -12 -5 -114 -43 -227 -84 -196
-72 -357 -136 -391 -155 -9 -5 -56 -26 -104 -46 -49 -20 -173 -79 -276 -131
-103 -52 -190 -94 -192 -94 -3 0 -88 -50 -189 -111 -350 -213 -607 -433 -741
-636 -37 -56 -71 -112 -76 -125 -22 -56 -60 -219 -65 -284 -10 -119 41 -414
213 -1249 21 -104 58 -282 81 -395 49 -241 98 -400 142 -461 58 -80 168 -206
211 -242 70 -57 263 -153 377 -186 110 -33 288 -66 405 -76 39 -4 81 -8 94
-11 l23 -5 -8 78 c-13 126 -7 184 20 211 21 22 23 22 37 6 9 -12 9 -15 2 -10
-23 13 -36 -5 -14 -20 11 -8 18 -21 15 -29 -4 -8 -1 -15 4 -15 6 0 14 15 18
34 4 24 10 33 20 29 8 -3 14 -1 14 5 0 6 -5 12 -10 14 -7 2 -5 11 4 23 15 19
15 18 16 -17 0 -20 5 -38 11 -40 9 -3 9 -10 0 -26 -8 -14 -8 -22 -1 -22 5 0
10 -8 11 -17 0 -13 3 -12 10 5 5 13 7 28 4 33 -4 5 0 6 8 3 18 -6 55 65 39 75
-6 4 -7 12 -3 20 6 9 15 -1 31 -33 12 -25 25 -46 30 -46 4 0 11 -7 14 -16 5
-14 4 -15 -9 -4 -12 10 -15 10 -15 -2 0 -11 18 -23 75 -45 6 -3 -1 5 -15 17
l-25 21 50 -6 c78 -9 129 -6 175 10 52 18 97 19 170 1 66 -16 121 -11 113 10
-4 11 7 14 48 15 44 1 159 6 259 12 8 0 44 -2 80 -6 39 -5 60 -4 52 1 -16 11
145 24 259 22 41 -1 76 -1 79 0 26 7 24 7 1005 31 380 9 486 15 555 30 340 71
467 101 550 127 123 40 211 62 246 62 35 0 134 45 134 60 0 6 -4 8 -10 5 -13
-8 -13 1 2 25 10 15 9 22 -5 38 -11 12 -13 22 -7 28 6 6 3 34 -9 79 -11 39
-21 82 -23 97 -2 15 -7 30 -11 34 -4 4 -7 18 -7 31 0 13 -4 23 -9 23 -5 0 -7
9 -4 20 3 11 1 20 -4 20 -5 0 -10 21 -11 46 -1 26 -9 60 -18 78 -9 17 -18 60
-19 96 -2 36 -5 72 -8 80 -3 8 -10 49 -16 90 -5 41 -19 131 -30 200 -11 69
-21 131 -21 138 0 8 16 12 45 12 43 0 45 1 39 24 -9 38 3 48 32 29 23 -15 41
-15 197 -4 311 23 441 13 470 -35 4 -8 17 -14 28 -14 16 0 19 -5 14 -20 -3
-11 -3 -20 2 -20 4 0 9 -15 10 -33 1 -17 5 -43 8 -55 4 -16 2 -21 -6 -17 -7 5
-9 1 -5 -11 3 -11 8 -32 10 -49 11 -61 18 -85 25 -85 8 0 8 -40 0 -55 -9 -17
-3 -110 9 -132 15 -27 16 -56 2 -48 -7 4 -7 -3 0 -20 6 -15 10 -40 10 -56 0
-16 4 -29 9 -29 4 0 6 -11 3 -25 -2 -14 1 -32 8 -40 10 -12 10 -15 -1 -15 -10
0 -10 -3 -1 -12 7 -7 12 -22 12 -35 0 -13 7 -26 15 -29 22 -9 20 -64 -2 -64
-10 -1 -3 -7 16 -15 23 -10 31 -20 27 -30 -3 -8 -2 -15 2 -15 18 0 143 50 178
72 49 30 98 50 193 80 64 20 83 31 130 79 33 33 74 63 101 73 29 11 60 35 88
67 l43 50 -5 77 c-2 42 -7 90 -11 106 l-8 29 39 -27 c21 -14 47 -26 56 -26 10
0 18 -4 18 -9 0 -6 14 -25 31 -43 17 -18 35 -45 41 -60 6 -17 17 -28 28 -28
31 0 65 -53 85 -133 10 -42 23 -77 27 -77 10 0 2 97 -18 214 -8 48 -13 90 -10
93 2 2 11 -21 20 -51 l17 -56 52 26 c96 48 311 196 409 282 105 91 217 230
266 327 36 72 89 248 98 325 6 56 -9 240 -26 315 -6 22 -26 117 -46 210 -19
94 -44 211 -55 260 -11 50 -21 99 -23 110 -4 20 -100 471 -132 615 -39 182
-136 515 -168 578 -19 38 -68 108 -108 157 -64 78 -91 100 -191 163 -366 230
-1021 333 -1912 302z m585 -43 c25 -3 77 -8 115 -12 162 -14 256 -28 355 -54
102 -27 194 -74 168 -84 -8 -4 -4 -8 10 -13 21 -6 21 -7 5 -21 -10 -8 -12 -12
-5 -8 6 3 12 4 12 1 0 -2 3 -12 6 -21 6 -15 -1 -16 -62 -10 -38 3 -82 10 -99
15 -16 5 -50 12 -74 16 -25 3 -51 13 -59 21 -8 8 -23 12 -33 10 -10 -3 -28 4
-40 14 -12 10 -28 19 -36 19 -7 0 -13 5 -13 12 0 6 -3 9 -6 6 -3 -3 -21 -2
-40 3 -19 6 -46 12 -62 14 -15 2 -46 11 -69 19 -58 21 -258 35 -528 37 -470 3
-978 -45 -1590 -151 -218 -38 -279 -50 -505 -99 -52 -11 -128 -27 -169 -36
-59 -13 -418 -106 -596 -155 -210 -58 -646 -207 -897 -306 -76 -30 -139 -54
-142 -54 -2 0 -43 -18 -90 -40 -47 -22 -87 -40 -90 -40 -2 0 -50 -22 -107 -49
-235 -111 -303 -140 -279 -121 14 11 106 61 205 109 264 131 309 150 579 252
87 33 166 64 175 69 22 12 185 66 416 138 901 282 2015 484 2850 518 88 4 161
7 162 8 5 4 494 -3 533 -7z m-628 -101 c4 -6 13 -4 22 3 13 11 17 11 22 -3 5
-13 9 -14 20 -5 11 9 14 9 14 0 0 -6 -8 -14 -17 -17 -30 -9 -45 -19 -45 -29
-2 -19 -61 -54 -102 -60 -23 -3 -71 -7 -107 -8 l-66 -2 -10 32 c-8 27 -7 33 5
33 8 0 12 6 8 15 -4 10 1 15 14 15 12 0 20 7 21 18 0 10 3 12 6 5 5 -15 33
-18 33 -4 0 16 171 22 182 7z m-836 -76 c0 -12 -6 -24 -12 -28 -6 -4 -13 -14
-16 -23 -7 -18 -48 -33 -48 -18 0 6 -10 1 -22 -11 -24 -22 -48 -27 -48 -9 0 6
-7 3 -16 -5 -17 -18 -39 -22 -29 -6 8 13 -8 13 -21 0 -6 -6 -38 -13 -70 -15
-68 -5 -118 -12 -144 -20 -10 -3 -23 2 -31 12 -12 15 -12 16 5 10 16 -6 17 -5
6 8 -7 9 -20 13 -27 10 -9 -3 -13 0 -10 7 2 7 -5 19 -17 26 -20 11 -19 12 7 6
15 -3 33 -2 40 4 6 5 73 21 147 35 146 29 178 33 256 35 46 2 51 0 50 -18z
m1144 -320 c0 -16 5 -18 35 -15 26 4 35 1 35 -10 0 -8 5 -15 10 -15 6 0 8 11
4 27 l-7 27 26 -17 c32 -21 37 -21 37 -2 0 9 6 12 15 9 8 -4 22 -1 30 6 12 10
16 8 25 -14 5 -14 7 -33 3 -43 -4 -11 -3 -14 5 -9 7 4 12 18 12 31 0 12 7 25
14 28 11 4 13 1 9 -10 -4 -10 -2 -14 4 -10 6 4 14 1 16 -5 3 -8 6 -6 6 5 1 10
5 16 11 12 5 -3 7 -12 4 -19 -3 -9 2 -13 18 -11 34 4 35 5 13 15 -18 8 -17 9
8 9 25 1 27 -1 17 -20 -16 -28 -7 -33 15 -9 10 11 23 20 29 20 7 0 7 -3 1 -8
-5 -4 -16 -14 -22 -23 -10 -13 -10 -16 2 -16 8 0 12 3 10 7 -2 3 5 11 16 18
11 7 19 8 19 2 0 -5 -5 -10 -11 -10 -5 0 -7 -5 -4 -10 3 -6 -5 -14 -19 -20
-14 -5 -26 -12 -26 -16 0 -3 7 -3 16 0 12 4 15 2 10 -9 -7 -20 4 -19 20 3 12
15 15 15 23 2 7 -9 6 -19 -1 -27 -8 -10 -5 -13 11 -13 11 0 21 -5 21 -12 0 -6
6 -4 13 7 13 17 14 16 13 -6 -1 -16 4 -23 14 -21 8 2 2 -8 -15 -22 -25 -21
-27 -25 -10 -23 11 1 20 -2 20 -8 0 -5 -6 -9 -12 -7 -7 2 -13 -2 -13 -9 0 -7
10 -9 25 -7 21 5 23 3 13 -9 -10 -12 -9 -18 7 -30 12 -8 19 -23 17 -36 -2 -17
3 -23 19 -24 30 -3 35 -11 21 -34 -7 -11 -10 -24 -7 -29 3 -6 8 -20 10 -31 7
-34 15 -35 15 -3 l0 29 13 -25 c7 -14 9 -26 5 -28 -4 -2 -8 -13 -8 -23 0 -11
5 -17 10 -14 16 10 12 -2 -7 -21 -16 -16 -16 -16 3 -10 15 4 20 1 21 -14 1
-11 9 -28 18 -36 11 -12 13 -20 6 -27 -8 -8 -3 -16 17 -29 22 -14 23 -18 8
-18 -12 0 -16 -5 -12 -15 3 -8 0 -15 -6 -15 -7 0 -6 -5 2 -15 7 -8 16 -12 21
-9 5 3 9 -9 9 -26 0 -18 4 -29 10 -25 6 3 10 -2 10 -13 0 -10 10 -29 21 -41
20 -21 20 -23 3 -17 -13 4 -23 -1 -32 -14 -7 -11 -9 -20 -5 -21 43 -4 85 -29
50 -29 -10 0 -14 -5 -11 -15 4 -8 10 -13 14 -10 5 3 11 1 15 -5 3 -5 -3 -10
-13 -10 -16 0 -20 -7 -20 -33 0 -38 15 -61 46 -71 21 -7 27 -21 23 -56 -2 -12
0 -12 7 -1 8 11 11 11 18 0 4 -8 3 -14 -5 -17 -9 -3 -9 -8 1 -20 11 -13 10
-15 -4 -9 -10 3 -20 1 -24 -5 -5 -7 -2 -8 6 -3 10 6 12 4 7 -8 -4 -11 -1 -17
9 -17 8 0 12 -4 9 -10 -3 -5 -1 -10 5 -10 7 0 9 -8 5 -19 -4 -14 0 -21 16 -26
12 -4 17 -10 11 -14 -20 -12 -18 -55 5 -73 11 -10 26 -18 33 -18 6 0 8 -5 5
-10 -4 -6 -10 -8 -15 -5 -4 3 -6 -3 -3 -14 3 -10 0 -22 -6 -25 -16 -10 -13
-26 4 -26 8 0 15 -5 15 -11 0 -5 -4 -7 -10 -4 -5 3 -7 0 -4 -9 3 -8 14 -13 24
-11 9 2 17 -2 17 -8 0 -7 1 -23 1 -36 2 -20 4 -21 17 -11 12 10 15 10 15 -4 0
-9 -7 -16 -16 -16 -8 0 -12 -5 -9 -10 4 -6 11 -8 16 -5 5 4 9 4 9 1 0 -2 3
-13 7 -23 6 -16 5 -16 -10 -4 -15 12 -17 11 -17 -13 0 -29 3 -31 31 -16 15 8
23 7 35 -5 14 -13 14 -15 0 -15 -9 0 -16 5 -16 11 0 8 -5 7 -16 -2 -9 -8 -14
-23 -12 -39 5 -35 -25 -49 -123 -55 -41 -2 -117 -7 -169 -10 -52 -3 -120 -8
-150 -10 -30 -3 -104 -7 -165 -10 -60 -3 -155 -10 -210 -15 -196 -17 -355 -16
-355 3 0 4 5 7 11 7 5 0 8 4 5 9 -3 5 1 14 9 21 8 7 15 18 15 24 0 6 -4 4 -10
-4 -5 -8 -12 -12 -15 -8 -3 3 1 13 10 21 22 22 20 43 -2 26 -10 -7 -15 -9 -11
-5 4 5 2 16 -5 24 -10 13 -8 14 13 7 24 -8 24 -8 7 19 -16 23 -16 26 -2 26 9
0 13 5 10 10 -4 6 -11 8 -16 5 -5 -4 -9 -1 -9 4 0 6 5 11 11 11 5 0 7 5 4 10
-10 17 -23 11 -28 -12 -3 -16 -5 -12 -6 12 -1 24 -4 31 -10 21 -6 -10 -10 -10
-16 -1 -4 6 0 17 9 23 14 11 14 15 -1 45 -8 17 -21 32 -27 32 -6 1 0 7 14 15
18 9 29 10 37 3 17 -14 16 2 -1 25 -17 22 -27 22 -19 0 4 -11 3 -14 -5 -9 -7
4 -12 20 -12 36 0 16 -5 32 -12 36 -7 5 -4 10 10 15 12 5 22 14 22 21 0 10 -2
10 -9 -1 -6 -10 -10 -10 -16 -1 -4 6 -5 14 -2 17 11 10 -18 30 -38 26 -19 -4
-19 -4 -1 11 10 8 15 19 12 25 -4 5 -2 12 4 16 6 4 7 11 4 17 -5 7 -2 9 7 6
10 -4 15 1 15 12 0 10 -4 16 -8 14 -4 -3 -8 6 -8 20 0 23 -4 26 -37 27 -21 1
-31 3 -22 6 12 3 15 11 11 25 -3 14 -1 19 6 14 7 -4 12 -1 12 8 0 8 3 23 7 33
6 16 5 16 -10 4 -18 -14 -20 -12 -11 12 3 10 14 14 29 11 15 -3 25 2 29 12 4
12 2 15 -9 10 -8 -3 -15 0 -15 7 0 25 -22 37 -37 21 -8 -8 -20 -11 -26 -7 -8
5 -6 9 6 11 27 5 20 21 -8 17 -20 -2 -23 0 -14 11 6 8 15 11 20 8 5 -3 9 -1 9
5 0 6 7 8 15 5 20 -8 19 6 -2 22 -17 12 -16 13 5 14 25 0 30 25 7 34 -8 3 -15
10 -15 16 0 6 5 8 10 5 6 -3 10 -2 10 4 0 15 -18 23 -25 11 -4 -6 -11 -7 -17
-4 -7 5 -4 12 8 22 13 10 15 16 7 19 -10 3 -9 9 3 21 11 11 13 17 5 20 -15 5
-14 29 2 35 7 3 5 6 -5 6 -18 1 -24 16 -10 24 4 2 2 2 -5 1 -7 -2 -15 1 -18 6
-6 10 7 14 33 11 22 -3 12 17 -12 23 -35 9 -41 44 -9 59 19 9 26 8 34 -4 7
-12 9 -12 8 1 -1 22 -14 52 -22 51 -11 -1 -9 6 9 40 8 17 11 28 5 24 -16 -9
-24 20 -16 53 4 15 9 22 12 16 2 -7 13 -10 23 -7 23 6 27 23 5 23 -19 0 -19 4
0 40 9 17 11 30 6 30 -13 0 -32 -26 -24 -34 4 -4 -1 -4 -12 0 -13 5 -15 9 -6
12 11 4 11 6 0 13 -10 6 -11 9 -1 9 6 0 12 8 12 18 0 11 10 24 23 31 21 10 21
11 1 6 -16 -4 -23 0 -27 15 -4 16 0 20 18 20 13 0 26 -5 28 -10 3 -6 4 -5 3 2
-1 7 -12 14 -24 16 -27 4 -28 13 -2 35 11 9 20 12 20 6 0 -6 7 -9 15 -5 8 3
15 0 15 -6 0 -7 5 -6 15 2 10 8 13 20 9 34 -6 19 -5 20 11 6 17 -14 18 -13 12
3 -4 10 -7 25 -7 34 0 13 -2 13 -15 -1 -8 -8 -15 -19 -15 -24 0 -5 -7 -15 -15
-22 -9 -8 -15 -8 -15 -2 0 6 -3 18 -7 28 -4 12 -3 15 5 10 7 -4 12 -2 12 3 0
6 6 11 14 11 8 0 17 8 21 18 6 15 8 15 18 2 18 -22 57 -21 57 2 0 11 7 18 20
18 11 0 20 -5 20 -12 0 -6 7 -4 18 5 10 10 22 14 25 10 4 -3 7 1 7 10 0 10 5
17 10 17 6 0 10 -5 10 -11 0 -5 5 -7 10 -4 6 4 8 11 5 16 -4 5 -1 9 4 9 6 0
11 -9 11 -20z m-3173 -200 c-3 -10 -2 -19 2 -18 50 6 -85 -50 -219 -92 -135
-42 -215 -60 -218 -50 -2 6 -8 8 -13 5 -5 -4 -6 1 -3 10 4 10 13 13 26 9 13
-4 18 -2 14 4 -4 6 3 16 14 22 11 6 20 18 20 26 0 8 5 12 10 9 6 -4 22 0 35 9
13 9 33 16 45 16 11 0 20 4 20 10 0 5 17 12 38 15 20 4 49 11 63 16 14 6 47
12 74 14 26 2 50 6 53 9 3 4 14 6 25 6 14 0 18 -5 14 -20z m507 -3607 c-9 -34
-35 -57 -47 -40 -5 9 -10 7 -18 -5 -8 -14 -24 -18 -75 -18 -36 0 -73 4 -83 9
-22 12 -105 14 -250 5 l-113 -7 7 24 c4 13 12 27 18 31 22 14 148 19 218 9
103 -14 134 -15 209 -6 82 9 101 13 108 20 3 3 11 5 19 5 10 0 11 -8 7 -27z
m-225 -87 c20 -13 54 -17 151 -18 78 -1 82 -2 49 -12 -20 -6 -42 -16 -50 -22
-10 -8 -47 -10 -124 -4 -60 4 -162 3 -225 -1 -63 -5 -175 -9 -249 -10 -110 -1
-136 2 -149 15 -14 13 -14 16 -2 16 8 0 27 7 43 14 19 11 27 12 27 3 0 -9 2
-9 8 -1 5 9 17 7 42 -5 30 -15 40 -16 74 -4 21 7 42 11 46 8 4 -3 21 0 36 5
68 24 293 34 323 16z"/>
<path d="M12871 21544 c12 -15 12 -16 -9 -10 -33 11 -27 0 19 -34 l41 -30 -26
-10 c-15 -5 -39 -13 -54 -17 -24 -6 -25 -7 -7 -15 15 -6 13 -7 -12 -5 -18 2
-30 0 -28 -4 5 -8 -89 -24 -122 -21 -12 2 -24 -2 -28 -8 -3 -5 -14 -10 -23 -9
-14 0 -14 2 3 10 17 8 17 9 -5 4 -14 -2 -32 -5 -40 -5 -13 0 -13 -1 0 -10 12
-8 10 -10 -10 -11 -33 -1 -59 -4 -160 -23 -47 -8 -110 -18 -140 -22 -30 -3
-72 -13 -93 -20 -21 -8 -80 -21 -130 -29 -142 -25 -431 -82 -582 -115 -44 -10
-125 -28 -180 -40 -55 -13 -131 -31 -170 -42 -38 -11 -90 -23 -115 -28 -105
-18 -246 -52 -317 -75 -41 -14 -86 -25 -99 -25 -12 0 -35 -5 -51 -11 -15 -6
-100 -28 -188 -50 -184 -45 -232 -58 -260 -70 -78 -33 -271 -86 -291 -79 -4 1
-10 -3 -14 -9 -3 -6 -35 -18 -71 -27 -119 -28 -144 -36 -208 -65 -35 -17 -70
-28 -78 -25 -9 4 -11 2 -7 -6 5 -8 2 -9 -9 -5 -9 3 -19 2 -22 -3 -4 -6 -14
-10 -23 -9 -14 0 -14 2 3 10 14 6 3 8 -35 3 -30 -3 -59 -9 -65 -14 -16 -14
-127 -50 -153 -50 -12 0 -40 -9 -62 -20 -22 -11 -62 -25 -89 -31 -36 -7 -50
-16 -54 -31 -5 -18 -2 -20 24 -14 16 3 29 1 29 -4 0 -6 -13 -10 -30 -10 -25 0
-30 -4 -30 -25 0 -14 -5 -25 -12 -25 -6 0 -9 -2 -7 -5 10 -9 83 18 207 76 70
34 169 72 220 86 51 13 122 37 157 53 35 16 89 36 119 46 31 10 56 21 56 26 0
4 9 8 20 8 11 0 46 9 78 21 31 11 104 33 162 49 58 16 146 42 195 58 100 33
139 43 270 72 50 11 106 27 125 35 19 8 67 21 105 29 39 8 102 23 140 35 39
11 124 32 190 46 66 14 152 35 190 46 39 10 85 19 103 19 18 0 47 6 65 13 31
13 86 26 205 48 31 6 86 17 122 25 62 13 176 35 285 55 27 4 72 15 100 23 27
8 66 17 85 20 19 3 89 15 155 26 66 12 143 24 170 26 48 5 114 17 260 48 39 9
133 22 210 31 77 8 208 24 290 35 83 12 168 23 190 26 22 2 47 7 55 11 8 3 83
7 166 8 83 1 158 6 167 11 10 6 -71 9 -216 8 -188 -2 -238 -5 -262 -18 -35
-18 -80 -23 -55 -6 11 8 -4 10 -52 8 -37 -1 -70 0 -73 4 -11 10 81 21 136 16
52 -5 79 8 79 38 0 16 -36 17 -165 5 -44 -4 -96 -4 -115 0 -19 4 -64 10 -99
14 -60 6 -64 5 -50 -11z"/>
<path d="M12739 21530 c-14 -4 -37 -14 -50 -22 -13 -8 -50 -21 -81 -27 -32 -7
-83 -26 -113 -42 -31 -16 -60 -27 -66 -23 -9 5 -92 -8 -266 -43 -40 -8 -73
-19 -73 -25 0 -12 113 -3 239 18 46 8 95 14 108 14 30 0 152 48 171 67 7 7 27
13 43 13 17 0 40 5 52 12 20 10 21 10 8 -5 -21 -26 4 -20 38 9 17 14 31 34 31
45 0 21 -2 21 -41 9z"/>
<path d="M11935 21310 c-3 -5 -26 -10 -51 -10 -24 0 -70 -6 -102 -14 -31 -8
-79 -19 -107 -24 -27 -6 -72 -16 -100 -22 -27 -7 -102 -23 -165 -37 -63 -14
-167 -38 -231 -54 -63 -16 -142 -31 -175 -35 -32 -4 -81 -15 -109 -25 -27 -11
-68 -19 -90 -19 -22 -1 -58 -8 -80 -16 -57 -22 -288 -84 -365 -99 -36 -7 -103
-22 -150 -34 -47 -12 -110 -28 -140 -35 -30 -8 -80 -23 -111 -35 -31 -11 -99
-29 -150 -41 -101 -22 -223 -59 -216 -66 6 -6 256 53 347 83 107 33 157 47
315 83 168 38 194 44 265 64 30 9 71 19 90 22 19 3 60 14 91 25 32 10 80 20
108 23 28 3 63 12 78 19 16 8 51 18 78 21 49 7 79 14 260 56 50 12 164 37 255
56 91 19 184 39 208 44 24 5 64 12 90 16 26 3 82 14 126 25 43 10 80 19 82 19
2 0 4 5 4 10 0 6 -11 10 -24 10 -14 0 -28 -4 -31 -10z"/>
<path d="M16600 16604 c-634 -124 -985 -196 -1001 -204 -10 -6 -31 -10 -47
-10 -19 0 -29 -5 -29 -16 0 -12 7 -14 34 -9 21 4 40 2 49 -6 11 -9 14 -8 14 5
0 9 8 16 20 16 11 0 20 -4 20 -10 0 -5 -7 -7 -16 -3 -12 4 -14 0 -9 -20 6 -22
4 -25 -13 -20 -11 2 -23 0 -26 -6 -11 -18 51 -13 195 15 133 25 689 135 909
179 l115 23 -2 38 c-4 50 -9 64 -25 63 -7 0 -92 -16 -188 -35z"/>
<path d="M14460 16170 c-313 -58 -1265 -253 -1965 -401 -178 -38 -489 -103
-820 -173 -143 -30 -300 -64 -350 -75 -117 -27 -296 -66 -465 -102 -456 -96
-767 -166 -783 -176 -5 -3 -39 -9 -77 -14 -65 -8 -309 -60 -783 -166 l-209
-47 7 -46 c4 -25 10 -49 14 -53 4 -4 88 10 187 32 281 63 1052 231 1129 246
39 8 228 48 420 90 193 41 413 89 490 105 77 16 246 52 375 79 129 27 494 104
810 171 316 67 681 143 810 170 129 27 309 65 400 84 91 19 212 44 270 56 58
12 168 35 245 51 77 16 185 39 240 50 55 11 107 23 115 26 8 3 22 7 30 8 32 4
90 27 90 36 0 5 -12 6 -27 3 -23 -5 -26 -4 -16 7 10 10 9 17 -9 36 -12 13 -24
23 -27 22 -3 -1 -49 -9 -101 -19z"/>
<path d="M16604 15674 c-132 -45 -211 -170 -221 -349 -10 -170 51 -348 154
-451 128 -129 297 -116 351 28 23 62 31 53 41 -50 18 -173 -20 -267 -105 -265
-37 1 -88 39 -99 74 -6 16 -10 17 -58 3 -29 -8 -69 -19 -89 -25 -43 -11 -46
-24 -19 -73 80 -141 152 -190 279 -188 72 2 137 33 176 86 102 135 82 526 -46
901 -45 131 -118 245 -185 286 -46 29 -131 40 -179 23z m136 -221 c63 -37 113
-159 112 -274 0 -109 -51 -176 -126 -166 -87 12 -156 134 -156 277 1 126 89
211 170 163z"/>
<path d="M16075 15541 l-70 -18 -2 -44 c-6 -113 -69 -228 -143 -259 -16 -7
-30 -20 -31 -29 0 -10 -2 -11 -6 -3 -7 17 -23 15 -23 -3 0 -8 5 -15 11 -15 6
0 8 -8 4 -18 -3 -11 1 -34 9 -52 11 -28 15 -31 19 -14 4 17 5 17 6 -3 0 -12 7
-24 14 -26 9 -4 9 -8 -2 -15 -25 -18 4 -20 89 -7 47 7 88 9 93 6 6 -6 55 -219
77 -336 27 -146 94 -461 99 -467 3 -3 53 6 111 22 98 25 105 29 103 51 -1 13
-34 177 -73 364 -39 187 -84 405 -101 485 -29 139 -46 221 -73 340 -7 34 -17
55 -26 56 -8 1 -46 -6 -85 -15z"/>
<path d="M13877 15111 c-174 -37 -320 -70 -323 -73 -5 -6 35 -207 136 -688 23
-107 59 -278 80 -380 65 -309 59 -290 81 -290 35 0 612 130 664 150 87 33 82
30 160 82 134 90 221 233 240 396 6 53 5 62 -9 62 -9 0 -16 7 -16 16 0 10 6
14 15 10 8 -3 15 -1 15 3 0 5 -5 11 -11 13 -7 2 -7 12 0 31 7 17 7 27 1 27 -6
0 -10 -8 -11 -17 0 -12 -2 -14 -6 -5 -3 8 0 25 8 38 7 13 9 27 6 31 -4 3 -7
-1 -7 -10 0 -9 -4 -17 -9 -17 -5 0 -7 9 -4 20 3 11 1 20 -4 20 -5 0 -18 7 -29
16 -18 15 -18 15 4 9 22 -6 27 6 25 63 -1 6 3 12 8 12 5 0 9 5 9 10 0 6 -13 4
-30 -5 -16 -9 -30 -11 -30 -6 0 6 -8 7 -17 4 -14 -5 -12 -8 10 -16 38 -12 34
-28 -8 -25 -30 2 -34 5 -29 25 4 14 2 23 -6 23 -6 0 -18 7 -26 15 -13 12 -13
17 -2 28 7 6 20 13 28 14 26 3 60 12 70 18 20 12 9 25 -15 19 -14 -3 -25 -2
-25 4 0 5 -16 14 -36 19 -36 8 -48 30 -14 25 22 -4 27 13 8 21 -8 4 -9 6 -2 6
6 1 17 -6 24 -14 16 -20 40 -19 40 1 0 11 -6 14 -20 9 -25 -8 -26 10 -2 24 11
7 13 13 6 18 -6 5 -14 18 -18 31 -4 12 -12 22 -17 22 -5 0 -9 6 -9 14 0 23
-96 122 -166 171 -96 66 -166 87 -304 91 -110 3 -129 0 -433 -65z m463 -233
c43 -13 107 -56 140 -94 57 -66 89 -144 110 -271 4 -28 11 -56 14 -61 3 -6 1
-45 -4 -87 -15 -117 -60 -193 -146 -247 -39 -25 -203 -71 -298 -84 -41 -6 -45
-5 -51 17 -10 44 -155 747 -158 769 -1 11 32 22 138 46 141 32 182 34 255 12z"/>
<path d="M13176 14963 c-88 -18 -162 -36 -165 -38 -6 -7 5 -64 154 -770 25
-121 63 -302 84 -403 22 -101 41 -186 44 -189 3 -3 59 6 124 21 65 14 137 28
161 32 23 4 45 10 47 14 5 9 -80 433 -92 460 -4 8 -8 29 -9 45 -2 27 -54 282
-114 555 -11 52 -29 139 -39 193 -10 54 -23 102 -27 106 -5 5 -81 -7 -168 -26z"/>
<path d="M12720 14869 c-74 -16 -145 -32 -157 -34 -17 -4 -23 -13 -23 -31 0
-13 -16 -194 -35 -402 -20 -207 -38 -422 -41 -477 -3 -55 -9 -104 -14 -109 -5
-5 -23 21 -44 63 -36 71 -75 144 -113 211 -11 19 -36 64 -55 100 -19 36 -44
81 -55 100 -23 40 -75 134 -111 200 -14 25 -36 65 -50 90 -14 25 -35 63 -47
85 -13 22 -26 39 -31 39 -67 -9 -334 -70 -334 -76 0 -8 17 -39 67 -123 7 -11
15 -27 19 -35 4 -8 10 -17 13 -20 3 -3 11 -14 17 -25 49 -90 82 -147 110 -192
19 -28 34 -55 34 -59 0 -4 11 -22 25 -40 14 -18 25 -35 25 -39 0 -3 23 -42 50
-86 28 -44 50 -82 50 -84 0 -2 48 -84 106 -182 59 -98 118 -198 132 -223 14
-25 33 -57 43 -71 10 -15 23 -38 29 -53 6 -17 17 -26 32 -26 33 0 331 61 342
70 4 5 14 61 22 127 7 65 16 129 19 143 3 14 8 48 10 75 3 28 10 84 15 125 5
41 16 131 24 200 8 69 19 157 25 195 5 39 12 95 16 125 3 30 8 62 10 70 3 8 7
35 9 60 5 44 18 150 34 278 10 74 24 72 -168 31z"/>
<path d="M11002 14539 c-84 -8 -200 -43 -254 -76 -21 -13 -42 -23 -47 -23 -5
0 -40 -31 -79 -68 -137 -135 -205 -354 -173 -562 16 -105 49 -240 66 -272 8
-14 15 -31 15 -37 0 -19 89 -156 132 -202 137 -146 291 -204 499 -188 219 16
408 130 512 307 63 108 97 243 91 369 -22 480 -339 794 -762 752z m180 -295
c94 -47 173 -154 210 -283 21 -71 24 -92 34 -191 11 -116 -30 -253 -95 -313
-88 -83 -228 -105 -339 -54 -93 43 -184 174 -217 312 -25 107 -25 107 -25 191
-1 103 4 129 33 195 68 152 249 217 399 143z"/>
<path d="M9706 14279 c-148 -51 -240 -164 -282 -347 -39 -169 -3 -456 82 -648
57 -130 168 -266 259 -320 133 -78 327 -73 471 11 122 72 208 244 213 425 2
90 16 88 -225 40 l-51 -11 -10 -69 c-19 -119 -91 -190 -194 -190 -122 0 -234
119 -287 305 -71 250 -49 450 57 521 105 69 236 30 307 -92 14 -24 29 -44 33
-44 19 0 253 49 258 54 3 3 -2 25 -13 48 -75 172 -187 277 -339 323 -73 22
-207 19 -279 -6z"/>
<path d="M9037 13150 c-27 -5 -51 -11 -54 -14 -4 -4 24 -157 30 -161 4 -4 167
22 172 27 3 2 -3 39 -12 81 l-17 77 -35 -1 c-20 -1 -58 -5 -84 -9z"/>
<path d="M16587 12868 c-79 -42 -116 -152 -76 -229 27 -54 73 -89 117 -89 176
-3 203 -13 221 -84 15 -59 -3 -104 -52 -134 -68 -43 -161 -16 -188 55 -10 26
-27 29 -53 10 -18 -13 -18 -15 -2 -48 38 -78 86 -109 167 -109 48 0 65 5 105
33 60 41 84 85 84 157 0 114 -53 189 -133 191 -168 5 -194 11 -208 46 -33 87
19 163 113 163 38 0 60 -18 77 -63 9 -23 15 -27 34 -22 37 12 40 21 19 61 -32
63 -55 78 -125 80 -46 2 -72 -3 -100 -18z"/>
<path d="M16320 12780 c-31 -8 -31 -9 21 -248 29 -129 40 -201 37 -242 -2 -39
1 -56 8 -53 6 2 17 -16 24 -40 l12 -45 34 11 c18 5 31 14 28 18 -5 8 -13 47
-49 222 -24 121 -24 120 -40 107 -9 -7 -15 -8 -20 0 -3 5 1 13 9 16 9 3 16 15
16 26 0 10 -4 16 -10 13 -5 -3 -10 -1 -10 4 0 6 4 11 9 11 7 0 -34 200 -42
205 -1 1 -13 -1 -27 -5z"/>
<path d="M15400 12531 c0 -5 -8 -7 -17 -5 -10 2 -25 0 -33 -6 -12 -8 -13 -13
-2 -30 6 -11 12 -33 12 -48 0 -16 11 -51 25 -78 27 -52 31 -74 15 -74 -13 0
-13 -40 0 -60 9 -13 11 -13 19 0 11 17 13 15 34 -25 12 -25 13 -32 1 -42 -7
-7 -18 -13 -24 -13 -5 0 -10 -3 -10 -8 0 -13 49 -244 53 -248 1 -2 20 2 40 8
27 8 36 16 32 26 -3 8 -17 69 -30 136 -14 67 -32 152 -40 191 -8 38 -15 74
-15 78 0 5 -4 6 -9 2 -6 -3 -7 9 -4 31 5 29 3 35 -7 29 -8 -5 -11 -4 -6 3 8
14 -15 142 -26 142 -4 0 -8 -4 -8 -9z"/>
<path d="M15193 12483 c-13 -2 -23 -12 -23 -21 0 -9 -5 -55 -10 -102 -30 -241
-48 -433 -44 -445 6 -16 -8 -26 -22 -17 -6 4 -26 34 -44 67 -18 33 -42 76 -53
95 -11 19 -32 56 -46 81 -14 25 -53 92 -86 148 l-60 102 -35 -6 c-19 -4 -39
-10 -44 -15 -5 -5 13 -43 40 -86 69 -111 73 -117 80 -136 3 -10 10 -18 15 -18
5 0 9 -5 9 -12 0 -6 11 -26 25 -44 14 -18 25 -35 25 -38 0 -5 27 -50 97 -162
7 -10 20 -34 29 -52 15 -30 20 -32 48 -26 63 13 76 22 77 51 0 16 2 37 4 48 8
44 17 110 21 154 2 25 7 69 10 96 4 28 8 61 10 75 1 14 8 70 15 124 9 76 9
101 1 104 -17 5 -15 22 3 22 8 0 15 5 15 10 0 10 -16 11 -57 3z"/>
<path d="M14379 12312 c-8 -2 -28 -10 -46 -18 -17 -8 -35 -14 -41 -14 -5 0
-30 -18 -55 -40 -49 -44 -81 -108 -75 -156 3 -27 6 -29 38 -26 40 4 50 15 50
58 0 30 27 75 60 101 8 7 45 19 81 27 106 25 169 -5 183 -87 6 -33 3 -41 -23
-67 -16 -17 -36 -30 -44 -30 -8 0 -20 -7 -27 -15 -7 -8 -19 -15 -28 -15 -8 0
-36 -10 -61 -21 -25 -12 -62 -29 -81 -38 -118 -55 -165 -175 -102 -265 45 -65
73 -80 157 -84 67 -4 80 -1 140 28 51 25 75 44 102 82 l36 49 28 -30 c34 -38
107 -47 136 -18 19 19 5 57 -21 57 -39 0 -55 22 -72 105 -8 44 -18 84 -22 89
-3 5 -6 21 -8 35 -6 71 -32 171 -54 210 -35 63 -78 85 -166 86 -39 1 -78 -1
-85 -3z m236 -349 c17 -75 17 -80 -1 -131 -21 -64 -67 -106 -138 -127 -77 -23
-121 -20 -157 13 -26 23 -31 35 -32 77 -3 71 19 96 138 155 55 27 114 59 130
70 17 11 33 20 36 20 4 0 15 -35 24 -77z"/>
<path d="M15690 12292 c0 -11 -5 -24 -11 -27 -6 -5 -4 -11 6 -19 15 -10 14
-12 -4 -13 -11 -1 -20 1 -19 5 2 12 -14 42 -22 42 -7 0 -3 -25 15 -107 4 -18
14 -33 21 -33 8 0 14 4 14 8 0 5 7 9 15 9 23 0 18 -16 -10 -29 -16 -7 -24 -17
-20 -26 3 -7 5 -21 6 -30 0 -14 2 -13 10 3 6 14 7 8 3 -23 l-6 -42 36 2 c29 3
34 6 30 23 -8 36 -34 158 -45 215 -12 59 -19 76 -19 42z"/>
<path d="M13740 12170 c-82 -25 -142 -69 -181 -132 -11 -17 -26 0 -33 37 -7
37 -9 37 -80 18 -21 -6 -23 4 29 -238 20 -93 46 -222 59 -285 l22 -115 44 3
c24 2 46 5 49 8 3 2 -5 46 -18 97 -12 52 -24 107 -26 123 -2 16 -13 65 -24
108 -12 44 -21 92 -21 106 0 39 20 91 44 118 58 66 181 100 242 69 56 -29 65
-49 100 -219 19 -90 41 -198 50 -242 l17 -78 40 6 c22 4 43 9 47 11 5 3 -2 47
-15 97 -12 51 -28 125 -35 163 -20 113 -49 228 -66 262 -26 51 -86 84 -158 88
-33 2 -72 0 -86 -5z"/>
<path d="M9247 12161 c-31 -3 -58 -9 -58 -14 -2 -15 23 -134 31 -146 6 -11 28
-12 94 -6 l87 7 -7 36 c-4 21 -12 57 -18 82 -12 51 -18 53 -129 41z"/>
<path d="M12927 11996 c-130 -50 -207 -158 -207 -292 0 -207 124 -351 313
-362 66 -4 88 -1 139 19 131 51 199 149 202 289 2 110 -26 190 -91 266 -80 93
-232 127 -356 80z m227 -80 c58 -34 99 -97 120 -183 42 -176 -37 -303 -200
-320 -141 -15 -253 104 -262 278 -3 62 0 83 18 123 40 84 110 124 219 125 51
1 73 -4 105 -23z"/>
<path d="M11082 11929 c-182 -17 -300 -145 -310 -334 -9 -187 46 -344 162
-461 61 -60 81 -73 139 -92 79 -26 182 -29 213 -7 12 8 24 12 27 9 11 -11 84
29 125 69 51 50 82 126 88 219 l5 68 -28 0 c-63 0 -73 -9 -73 -60 0 -78 -51
-188 -87 -189 -7 -1 -13 -5 -13 -11 0 -5 -8 -10 -18 -10 -10 0 -24 -6 -31 -12
-11 -12 -124 -16 -161 -5 -70 19 -145 83 -189 161 -48 83 -65 158 -65 281 -1
100 1 114 26 160 41 78 96 119 178 135 100 19 208 -24 258 -103 26 -42 28 -43
66 -35 22 5 42 10 44 13 9 9 -49 93 -88 129 -68 61 -155 86 -268 75z"/>
<path d="M12529 11902 c-49 -23 -82 -51 -112 -96 -23 -33 -27 -35 -35 -19 -5
10 -12 35 -16 56 -7 37 -8 38 -44 31 -20 -3 -40 -10 -45 -13 -4 -4 4 -61 18
-127 14 -65 30 -141 35 -169 6 -27 22 -104 36 -170 14 -66 27 -131 30 -144 5
-21 9 -23 45 -18 23 3 43 7 45 10 3 3 -12 83 -32 178 -42 192 -46 258 -20 307
22 42 88 90 143 104 45 11 46 15 27 76 -5 16 -31 14 -75 -6z"/>
<path d="M11785 11785 c-59 -22 -118 -73 -112 -97 4 -14 2 -18 -9 -14 -27 11
-59 -78 -59 -164 1 -180 94 -322 238 -365 68 -20 117 -19 183 5 155 54 225
190 189 365 -19 92 -43 139 -97 194 -63 65 -109 84 -208 88 -57 2 -98 -2 -125
-12z m193 -71 c20 -8 50 -27 65 -42 78 -74 116 -245 77 -347 -13 -34 -70 -95
-89 -95 -9 0 -22 -5 -29 -12 -14 -14 -116 -14 -154 1 -128 49 -203 276 -134
408 45 88 167 128 264 87z"/>
<path d="M9463 11173 c-40 -2 -73 -7 -73 -11 1 -4 9 -41 18 -82 l18 -75 86 0
c48 0 89 3 92 5 2 3 -3 41 -12 85 -19 90 -9 84 -129 78z"/>
<path d="M15967 11090 c-3 -11 -10 -20 -16 -20 -6 0 -8 7 -4 16 9 23 -24 5
-58 -33 -60 -65 -82 -128 -81 -227 1 -62 31 -196 44 -196 4 0 8 -6 8 -12 1 -7
12 -26 25 -43 19 -22 25 -26 25 -13 0 12 5 16 18 12 12 -4 13 -3 4 3 -7 6 -11
21 -8 36 3 19 -1 30 -18 41 -42 27 -22 77 42 102 44 17 45 18 22 25 -15 4 -18
7 -8 8 10 1 22 10 28 21 10 19 9 20 -17 14 -15 -3 -40 -10 -55 -14 -22 -7 -30
-5 -38 9 -13 25 1 108 28 161 12 24 18 48 15 53 -3 6 -2 7 4 4 13 -8 71 45 65
61 -6 18 -19 14 -25 -8z"/>
<path d="M15384 10960 c-56 -28 -124 -93 -124 -119 0 -17 -17 -13 -24 5 -3 9
-6 27 -6 40 0 27 -1 28 -52 13 -21 -5 -38 -16 -38 -23 0 -8 16 -85 35 -173 19
-87 39 -180 45 -208 5 -27 18 -90 28 -140 l19 -90 32 1 c53 3 61 9 51 41 -19
62 -80 383 -80 422 0 98 94 181 205 181 38 0 51 -6 79 -32 33 -32 35 -40 82
-270 52 -256 50 -251 109 -228 21 8 24 13 16 27 -5 10 -12 41 -16 68 -4 28
-16 91 -27 140 -10 50 -25 122 -33 160 -22 111 -37 146 -77 178 -29 24 -48 30
-100 34 -55 4 -70 0 -124 -27z"/>
<path d="M9494 10922 l-51 -3 6 -37 6 -37 87 0 c47 0 90 3 94 7 4 4 3 22 -2
40 -11 36 -18 38 -140 30z"/>
<path d="M14925 10843 c-11 -3 -23 -8 -27 -11 -4 -4 4 -56 17 -117 14 -60 43
-198 65 -305 23 -107 43 -200 45 -206 6 -19 85 6 85 27 0 9 -18 99 -39 200
-22 101 -50 237 -62 302 -25 125 -24 124 -84 110z"/>
<path d="M14444 10738 c-140 -63 -203 -151 -209 -292 -7 -152 58 -274 177
-335 59 -30 74 -33 143 -32 59 1 89 7 133 27 103 47 154 113 166 217 l6 58
-37 -7 c-51 -9 -53 -11 -53 -44 0 -67 -45 -128 -120 -162 -56 -26 -152 -21
-202 10 -118 73 -162 298 -81 412 51 72 164 112 250 88 19 -5 48 -28 71 -54
l39 -46 41 12 c23 6 42 13 42 16 0 8 -34 58 -55 81 -64 68 -215 93 -311 51z"/>
<path d="M9567 10642 c-74 -3 -70 2 -51 -62 5 -19 13 -21 95 -19 84 1 89 3 88
23 -1 39 -15 61 -40 61 -13 0 -55 -1 -92 -3z"/>
<path d="M12695 10641 l-30 -6 -12 -110 c-7 -61 -15 -128 -17 -150 -3 -22 -12
-98 -21 -170 -8 -71 -22 -190 -30 -264 -8 -74 -17 -136 -18 -138 -7 -7 -35 34
-77 112 -23 44 -50 91 -60 105 -9 14 -20 32 -23 40 -3 8 -66 119 -140 245
l-133 230 -49 -3 c-27 -1 -51 -4 -53 -7 -2 -2 5 -19 16 -37 11 -18 29 -49 40
-68 58 -102 126 -218 157 -266 19 -30 35 -57 35 -60 0 -3 16 -30 35 -60 19
-30 35 -57 35 -61 0 -3 6 -14 14 -22 8 -9 26 -38 42 -66 15 -27 46 -81 69
-120 l41 -70 58 2 c32 1 60 3 61 5 2 2 6 28 10 58 3 30 8 62 10 70 2 8 7 38
10 65 6 56 30 230 44 320 6 33 15 96 21 140 6 44 15 107 20 140 24 156 24 155
-2 154 -13 -1 -36 -4 -53 -8z"/>
<path d="M13800 10604 c-90 -34 -133 -59 -173 -104 -144 -160 -88 -444 106
-540 60 -29 70 -31 148 -27 173 8 272 83 297 224 12 68 7 75 -46 61 -37 -9
-42 -14 -42 -40 0 -73 -51 -136 -132 -162 -59 -19 -102 -20 -149 -5 -87 29
-138 99 -162 220 -21 103 0 193 57 241 107 89 265 81 322 -17 9 -16 21 -19 55
-17 24 2 45 5 47 7 3 2 -3 20 -12 39 -17 37 -57 71 -115 101 -34 17 -171 30
-201 19z"/>
<path d="M13035 10439 c-37 -15 -77 -36 -88 -46 -29 -26 -57 -92 -57 -135 0
-36 1 -38 34 -38 39 0 57 17 54 53 -5 62 53 112 149 127 68 11 115 1 149 -31
32 -30 41 -82 20 -113 -16 -25 -105 -76 -131 -76 -14 0 -47 -13 -131 -51 -87
-40 -124 -91 -124 -169 1 -60 29 -114 82 -153 40 -30 174 -36 231 -11 57 25
115 70 133 106 l15 29 36 -36 c29 -29 42 -35 77 -35 59 0 80 17 67 53 -8 20
-16 27 -29 23 -38 -12 -51 17 -88 195 -39 188 -67 264 -110 298 -63 50 -185
54 -289 10z m310 -323 c18 -79 16 -114 -8 -159 -34 -64 -96 -98 -188 -105 -62
-4 -68 -3 -98 25 -42 37 -52 102 -23 149 16 25 111 84 136 84 14 0 135 60 141
70 14 23 24 6 40 -64z"/>
<path d="M18045 10238 c-209 -122 -696 -337 -1034 -455 -41 -14 -86 -32 -100
-40 -15 -7 -32 -13 -38 -13 -7 0 -41 -11 -75 -24 -35 -13 -135 -47 -223 -76
-166 -54 -202 -76 -226 -137 -10 -26 -29 -31 -29 -7 0 10 -5 14 -15 10 -8 -3
-22 -9 -31 -13 -14 -5 -16 -1 -12 20 6 30 -1 33 -40 13 -15 -7 -45 -16 -67
-20 -22 -4 -69 -16 -105 -26 -621 -183 -1473 -385 -2365 -561 -88 -17 -173
-33 -190 -36 -16 -2 -77 -13 -135 -23 -127 -23 -485 -83 -630 -105 -58 -9
-161 -25 -230 -36 -240 -37 -713 -94 -870 -105 -30 -2 -102 -8 -160 -14 -267
-25 -747 -50 -967 -50 -149 0 -143 3 -122 -74 l11 -39 296 7 c1221 28 2997
304 4607 716 551 141 843 229 897 271 20 16 41 29 47 29 6 0 8 7 5 15 -7 18
10 20 24 2 8 -10 6 -16 -9 -26 -12 -7 -19 -14 -17 -17 6 -6 111 26 122 37 6 5
17 9 25 9 14 0 190 49 199 56 2 1 -4 14 -14 29 -15 23 -15 28 -3 35 10 7 16 1
24 -25 l10 -34 200 68 c110 38 223 77 250 86 213 73 580 228 810 342 194 96
286 153 281 172 -3 9 -7 31 -11 49 -4 17 -10 32 -13 31 -4 0 -38 -18 -77 -41z"/>
<path d="M9645 9962 c3 -20 11 -58 17 -84 l10 -48 51 -2 c29 -1 69 -2 90 -4
20 -1 39 1 41 4 2 4 -4 42 -13 86 l-16 79 -94 3 -93 3 7 -37z"/>
<path d="M9696 9713 c4 -21 7 -38 8 -39 0 -1 43 -4 94 -7 101 -7 106 -4 82 57
-9 25 -12 26 -100 26 l-91 0 7 -37z"/>
<path d="M17976 8254 c-15 -9 -48 -31 -72 -49 -65 -50 -133 -70 -299 -89 -161
-18 -178 -22 -390 -90 -77 -25 -167 -52 -200 -60 -33 -8 -115 -31 -182 -50
-67 -19 -166 -42 -220 -51 -54 -9 -159 -31 -233 -50 -74 -19 -175 -41 -224
-50 l-89 -17 -64 -64 c-34 -36 -63 -69 -63 -74 0 -14 -39 -23 -110 -25 -36 -1
-78 -6 -95 -10 -29 -6 -27 -4 21 42 50 47 106 121 74 97 -8 -6 -78 -26 -155
-44 -77 -18 -174 -41 -215 -51 -125 -30 -426 -96 -575 -124 -309 -60 -384 -74
-475 -94 -52 -12 -143 -30 -202 -41 -59 -10 -154 -30 -210 -43 -221 -53 -285
-67 -583 -121 -77 -14 -199 -37 -271 -51 -72 -14 -152 -27 -177 -28 -26 -1
-47 -3 -47 -5 0 -9 69 -42 88 -42 25 0 28 -9 10 -31 -39 -46 -111 -65 -148
-39 -14 9 -49 23 -78 30 -28 6 -55 16 -58 21 -6 10 -73 2 -86 -10 -4 -3 2 -26
12 -50 l20 -43 -34 -34 c-38 -38 -52 -42 -59 -16 -3 9 -4 5 -4 -10 1 -15 4
-25 8 -22 11 6 39 -37 39 -59 0 -31 -30 -85 -69 -123 l-36 -35 30 6 c17 4 35
15 42 24 40 53 43 57 36 37 -5 -16 -3 -18 13 -12 10 4 48 14 84 23 76 18 198
53 325 93 50 16 128 36 175 45 287 56 498 99 585 120 101 25 289 64 335 70 14
2 84 15 155 30 72 15 150 31 175 36 25 4 106 22 180 39 143 33 179 40 300 60
147 24 286 50 355 65 39 8 126 27 195 41 69 14 136 29 150 34 14 5 88 14 165
20 77 7 165 18 196 26 31 8 74 14 95 14 22 0 86 9 144 21 258 51 358 72 405
86 68 19 185 35 275 38 126 3 264 16 276 26 6 5 49 21 95 35 108 32 307 53
419 43 47 -4 116 -3 155 3 39 5 99 10 135 10 36 1 55 3 42 5 -13 3 -28 16 -34
29 -7 14 -17 23 -25 20 -7 -3 -13 -1 -13 4 0 14 18 21 25 10 7 -12 25 -4 25
11 0 5 -8 9 -17 9 -15 0 -16 2 -3 10 12 8 12 10 -5 11 -11 0 -14 3 -7 6 6 2
12 11 12 19 0 8 5 14 11 14 6 0 8 -7 5 -16 -3 -8 1 -26 10 -40 9 -13 12 -24 8
-24 -5 0 0 -7 10 -15 20 -15 20 -15 0 -16 -14 0 -12 -3 8 -10 18 -7 33 -7 45
0 15 9 15 10 2 11 -9 0 -24 16 -35 35 -10 19 -22 35 -26 35 -5 0 -8 5 -8 10 0
18 18 11 25 -10 7 -23 25 -27 25 -5 0 8 10 23 22 35 15 14 18 20 7 20 -8 0
-20 -9 -27 -20 -11 -19 -14 -19 -28 -5 -8 8 -12 19 -9 25 3 5 1 10 -4 10 -6 0
-11 7 -11 15 0 8 -9 15 -19 15 -27 0 -34 27 -9 33 11 3 17 10 13 16 -4 7 4 11
20 11 20 0 26 4 23 18 -4 22 -48 30 -48 8 0 -18 -15 -21 -25 -6 -3 6 -1 10 4
10 6 0 11 7 11 15 0 18 -16 20 -23 3 -3 -8 -6 -5 -6 6 -1 14 4 17 20 13 12 -3
22 0 26 9 3 8 14 14 24 14 10 0 19 4 19 10 0 5 -7 7 -15 4 -8 -4 -15 -2 -15 4
0 15 26 22 39 9 8 -8 11 -8 11 0 0 6 -12 16 -27 22 -21 8 -22 10 -5 7 18 -3
22 0 22 21 0 14 4 22 10 18 6 -4 8 -10 5 -15 -3 -5 -1 -11 5 -15 5 -3 10 1 10
10 0 8 7 18 15 21 20 8 19 24 -2 24 -23 0 -14 6 22 14 23 5 27 4 15 -4 -11 -9
-12 -13 -2 -17 6 -2 12 -11 12 -19 0 -8 10 -14 24 -14 18 0 26 6 28 22 2 12
10 23 18 25 13 4 13 3 0 -6 -16 -12 -2 -15 24 -5 13 5 13 8 1 20 -7 8 -18 14
-24 14 -6 0 -11 5 -11 10 0 6 5 10 10 10 25 0 7 26 -20 28 -31 2 -38 -6 -19
-25 13 -13 4 -63 -12 -63 -6 0 -8 11 -4 29 8 36 -12 52 -31 26 -15 -20 -114
-35 -114 -17 0 6 17 8 43 5 39 -4 41 -3 23 11 -10 8 -23 13 -27 10 -5 -3 -9
-1 -9 5 0 5 -10 13 -22 17 -12 3 -29 15 -37 25 -15 17 -18 17 -45 3z"/>
<path d="M18028 7031 c-45 -41 -81 -65 -118 -77 -31 -10 -78 -38 -114 -68 -33
-28 -74 -58 -91 -67 -16 -9 -79 -45 -140 -80 -114 -67 -232 -122 -395 -185
-52 -20 -120 -48 -150 -61 -99 -45 -192 -79 -410 -153 -118 -40 -244 -84 -280
-97 -36 -14 -128 -42 -205 -63 -144 -40 -231 -68 -345 -113 -36 -14 -105 -33
-155 -42 -49 -10 -130 -30 -180 -45 -49 -16 -141 -38 -203 -49 -62 -12 -130
-30 -151 -41 -21 -10 -62 -22 -92 -25 -30 -4 -106 -20 -169 -36 -63 -16 -128
-29 -145 -29 -16 0 -64 -10 -105 -21 -41 -11 -104 -24 -140 -28 -64 -7 -184
-25 -385 -57 -55 -9 -134 -20 -176 -24 -42 -3 -81 -10 -88 -14 -12 -8 -112
-17 -371 -36 -80 -6 -165 -14 -190 -20 -138 -29 -369 -41 -875 -45 -511 -3
-522 -3 -609 19 -70 17 -101 21 -145 15 -49 -7 -65 -5 -136 23 -64 24 -104 32
-195 39 -121 8 -162 19 -251 65 -30 15 -56 29 -59 29 -30 8 -70 32 -101 60
-21 19 -51 41 -67 49 -15 8 -34 22 -41 30 -7 9 -37 27 -67 42 -54 26 -61 34
-47 48 5 4 9 12 9 17 1 5 2 13 3 18 1 11 70 36 87 33 24 -5 70 29 89 65 11 21
30 42 43 48 12 5 22 13 22 17 0 4 15 4 33 1 23 -3 37 0 46 11 7 9 22 16 32 16
11 0 27 4 37 10 9 5 56 21 105 36 69 21 106 41 175 91 48 35 112 76 142 91 52
25 62 27 175 24 l120 -2 80 41 c86 44 183 79 221 79 13 0 24 4 24 9 0 11 55
31 86 31 43 0 38 14 -28 93 -10 11 -18 24 -18 29 0 6 -9 21 -20 35 -11 15 -18
28 -16 30 7 7 95 -79 101 -98 5 -15 9 -16 19 -6 11 10 10 15 -8 27 -11 9 -43
37 -70 63 -45 43 -50 52 -54 102 -3 32 -9 55 -16 55 -25 0 -276 -40 -343 -54
-39 -8 -89 -14 -110 -12 -21 2 -69 0 -108 -5 -38 -5 -105 -11 -147 -14 -43 -3
-96 -12 -118 -20 -22 -8 -41 -14 -43 -13 -1 0 -21 -9 -44 -20 -23 -12 -49 -19
-57 -16 -8 3 -21 2 -28 -2 -7 -5 -17 -9 -23 -11 -5 -1 -21 -5 -35 -8 -44 -12
-186 -7 -221 8 -41 16 -108 15 -119 -2 -4 -7 -24 -13 -44 -14 -20 -1 -36 -5
-36 -10 0 -11 -108 -1 -124 11 -12 9 -22 8 -101 -2 -71 -10 -80 -9 -118 9 -28
13 -47 14 -108 7 -41 -5 -85 -8 -99 -6 -14 1 -29 3 -33 3 -5 1 -5 6 -2 11 3 6
2 10 -4 10 -5 0 -12 -4 -16 -10 -7 -11 -36 -1 -51 18 -17 24 -26 -2 -12 -35 7
-15 20 -34 28 -41 13 -10 12 -11 -5 -6 -19 5 -20 5 -1 -10 10 -8 24 -17 30
-19 6 -3 7 -8 2 -13 -5 -5 -11 -4 -13 4 -3 6 -12 12 -21 12 -12 0 -13 -3 -5
-11 8 -8 8 -20 3 -35 -6 -14 -6 -26 0 -29 6 -4 10 1 10 9 0 8 5 18 12 22 7 4
8 3 4 -4 -4 -7 -3 -12 3 -12 6 0 8 -7 5 -15 -4 -9 0 -15 7 -15 11 0 11 -3 -1
-10 -8 -5 -11 -10 -6 -10 5 0 2 -7 -5 -17 -11 -13 -11 -17 -2 -20 9 -3 11 -14
7 -30 -5 -18 -3 -24 5 -19 7 5 11 0 11 -13 0 -12 4 -21 9 -21 6 0 8 -10 6 -22
-4 -21 -3 -21 9 -6 7 10 16 15 20 11 3 -4 -4 -18 -16 -31 -18 -20 -19 -24 -5
-19 9 4 17 2 17 -3 0 -6 -7 -10 -15 -10 -8 0 -15 -5 -15 -11 0 -6 9 -8 21 -4
14 5 19 3 15 -3 -3 -6 -2 -13 3 -17 5 -3 7 -15 5 -28 -10 -41 -4 -70 20 -98 9
-11 19 -34 21 -51 2 -17 9 -36 14 -41 14 -14 14 -37 0 -37 -5 0 -7 5 -4 10 3
6 1 10 -4 10 -15 0 -14 -2 13 -70 14 -33 22 -60 18 -60 -4 0 4 -7 16 -16 12
-8 19 -20 16 -26 -4 -6 -2 -8 4 -4 6 3 13 -3 17 -14 3 -11 11 -20 16 -20 5 0
9 -7 9 -15 0 -8 5 -15 10 -15 6 0 10 4 10 8 0 5 7 9 15 9 18 0 20 -14 3 -19
-22 -8 66 -77 140 -109 17 -7 32 -18 32 -23 0 -4 6 -6 13 -3 8 3 31 -3 53 -12
21 -10 42 -19 46 -20 4 -1 34 -13 65 -28 32 -14 87 -29 122 -34 35 -5 68 -12
73 -15 11 -7 46 27 48 47 5 32 0 50 -12 43 -8 -5 -9 -2 -5 10 4 10 7 21 7 24
0 4 7 -4 17 -17 9 -13 16 -39 15 -57 -1 -19 3 -34 8 -34 6 0 10 5 10 11 0 6 7
9 15 5 9 -3 15 0 15 9 0 8 5 15 10 15 6 0 10 -7 10 -15 0 -19 16 -20 23 -1 3
8 1 17 -6 20 -7 2 1 5 16 5 20 1 30 -5 36 -21 l8 -22 12 22 c6 12 17 22 23 22
7 0 7 -4 -1 -14 -9 -10 -9 -16 -1 -21 8 -5 8 -11 1 -19 -6 -7 -8 -16 -4 -19
12 -13 23 -7 23 13 0 24 13 26 30 5 10 -12 9 -15 -5 -15 -12 0 -15 -5 -11 -16
3 -9 6 -18 6 -21 0 -3 6 -1 13 4 22 17 47 23 44 10 -1 -7 5 -11 13 -9 8 2 19
-3 25 -11 20 -27 296 -67 464 -67 42 0 139 -5 217 -12 111 -9 222 -9 520 2
208 7 395 12 414 11 52 -3 336 20 360 29 3 1 19 2 35 2 29 -1 29 -1 5 7 -23 7
-21 8 19 15 31 6 46 5 51 -4 5 -7 16 -9 30 -5 12 4 58 11 103 15 45 5 138 15
207 24 69 8 143 17 165 19 41 5 192 27 350 52 50 7 140 21 200 30 61 9 167 30
236 46 70 16 149 31 175 34 58 5 187 33 379 81 77 19 163 40 190 45 117 24
420 103 540 141 215 67 331 107 316 107 -9 1 -11 4 -5 10 11 10 111 32 169 36
61 4 116 21 275 82 80 31 179 69 220 84 294 107 575 220 630 253 14 8 41 22
60 32 19 9 58 28 85 42 28 13 88 42 135 63 47 22 92 43 100 48 8 6 51 27 95
49 87 43 130 75 121 91 -4 6 5 9 21 8 19 -1 27 2 25 12 -2 8 3 11 12 8 8 -3
22 4 33 15 16 20 17 21 1 15 -12 -4 -18 -1 -18 7 0 8 12 19 28 24 17 7 21 11
10 11 -22 1 -24 21 -3 21 9 0 12 6 9 15 -11 28 -41 15 -106 -44z"/>
<path d="M16202 5800 c-14 -11 -20 -24 -16 -31 5 -9 2 -10 -10 -6 -24 9 -79
-20 -72 -39 3 -8 -1 -14 -9 -14 -8 0 -15 -4 -15 -10 0 -5 9 -10 21 -10 11 0
17 5 14 10 -8 13 5 12 33 -3 l23 -13 -25 -27 c-26 -28 -62 -28 -51 1 8 21 -14
33 -36 19 -14 -9 -21 -8 -31 2 -11 11 -9 12 11 6 15 -5 21 -3 17 3 -3 6 -3 12
1 15 5 2 3 3 -4 1 -6 -1 -53 -5 -105 -9 -51 -3 -108 -8 -127 -11 -40 -6 -126
-46 -161 -75 -28 -21 -203 -61 -208 -47 -5 10 -103 11 -99 1 1 -5 -2 -8 -8 -8
-5 0 -9 6 -7 14 2 8 -2 12 -10 8 -90 -36 -99 -40 -86 -48 9 -7 7 -9 -7 -7 -29
3 -115 -40 -115 -58 0 -8 -6 -14 -12 -13 -7 1 -20 -1 -28 -4 -36 -16 -109 -24
-120 -13 -6 6 -48 9 -106 8 -84 -2 -106 -7 -192 -42 -53 -21 -99 -45 -102 -52
-4 -11 -26 -13 -95 -10 -194 7 -253 -2 -353 -53 -27 -14 -67 -17 -225 -18
-180 -2 -194 -3 -228 -24 -52 -33 -121 -56 -129 -43 -3 6 -60 16 -125 24 -100
12 -123 12 -151 0 -18 -8 -42 -14 -52 -14 -11 0 -25 -7 -32 -14 -6 -8 -32 -23
-57 -32 -35 -14 -46 -15 -53 -5 -4 8 -16 11 -28 7 -11 -4 -23 -2 -27 4 -3 5
-21 10 -39 10 -19 0 -41 9 -55 21 l-23 22 7 -23 c6 -19 4 -22 -9 -17 -9 4 -23
10 -31 13 -9 4 -15 0 -15 -9 0 -9 -4 -18 -9 -21 -5 -4 -7 3 -4 14 6 24 13 24
-82 0 -59 -15 -93 -18 -135 -13 -30 4 -70 6 -87 6 -18 -1 -32 2 -31 5 1 4 -3
17 -10 28 -13 25 3 44 53 62 28 11 28 11 -10 5 -22 -3 -44 -11 -50 -18 -25
-30 -75 -53 -130 -60 -33 -4 -68 -11 -77 -16 -12 -6 -18 -6 -18 1 0 5 -5 10
-11 10 -5 0 -7 -5 -3 -11 5 -8 1 -8 -14 0 -15 8 -23 7 -31 -3 -9 -10 -19 -11
-46 -2 -41 13 -41 27 2 38 24 6 30 12 26 27 -3 13 2 23 16 30 12 7 18 17 15
26 -8 20 -24 19 -24 -1 0 -9 -6 -14 -12 -11 -7 2 -12 12 -11 22 1 12 -2 14 -9
7 -6 -6 -27 -8 -47 -6 -20 2 -30 2 -23 -2 22 -11 11 -74 -13 -74 -7 0 -16 -6
-19 -12 -3 -10 -8 -9 -15 3 -6 9 -24 22 -40 29 -16 6 -32 18 -35 26 -3 8 -13
14 -21 14 -10 0 -13 -5 -9 -12 5 -7 3 -8 -5 -3 -7 4 -9 11 -4 15 10 10 90 16
99 8 8 -9 34 2 34 14 0 5 -4 6 -10 3 -5 -3 -19 -1 -31 6 -12 6 -19 7 -16 2 4
-6 -13 -9 -38 -9 -25 1 -45 5 -45 10 0 5 -3 7 -6 3 -4 -3 -13 0 -21 8 -8 8
-20 15 -26 15 -7 0 -6 -4 3 -10 8 -5 11 -12 7 -16 -4 -4 -13 -2 -19 4 -7 7
-20 12 -30 12 -10 0 -18 6 -18 13 0 8 -4 7 -10 -3 -5 -8 -10 -10 -10 -4 0 11
-44 13 -55 2 -10 -10 -36 2 -29 13 3 5 -12 9 -33 8 -32 0 -35 -2 -18 -10 17
-8 16 -9 -8 -5 -18 2 -31 -2 -37 -13 -4 -9 -12 -13 -16 -9 -4 4 -1 14 6 23 11
13 6 15 -41 16 -81 2 -155 12 -165 22 -3 3 -12 3 -20 0 -8 -3 -21 0 -29 7 -8
6 -38 14 -67 17 -29 3 -59 10 -66 15 -9 8 -11 7 -7 -5 4 -8 18 -18 31 -21 14
-4 22 -11 19 -17 -4 -5 -15 -7 -25 -4 -10 3 -33 8 -51 10 -19 2 -56 10 -84 17
-27 6 -53 11 -57 10 -5 -1 -8 2 -8 7 0 5 -9 7 -20 4 -12 -3 -29 2 -40 12 -10
9 -29 16 -42 15 -39 -4 -48 -1 -48 15 0 18 -12 19 -27 4 -14 -14 -33 -3 -33
20 0 12 -16 23 -52 35 -29 10 -63 23 -75 29 -35 16 -39 0 -4 -17 17 -9 32 -16
33 -15 2 0 16 -4 31 -10 16 -6 33 -11 38 -11 6 0 8 -4 4 -9 -3 -5 -1 -12 5
-16 5 -3 10 -12 10 -18 0 -7 -7 -4 -14 6 -7 9 -18 17 -24 17 -22 0 -20 -17 4
-43 l25 -27 -30 0 c-16 0 -33 -5 -36 -11 -10 -16 3 -23 18 -11 8 7 16 9 19 6
9 -8 -3 -44 -15 -44 -6 0 -7 -3 -4 -7 11 -10 46 27 40 43 -3 8 0 14 6 14 15 0
14 -33 -1 -48 -8 -8 -8 -15 1 -26 8 -10 9 -16 1 -21 -14 -9 -12 -25 4 -25 8 0
12 9 10 26 -4 36 5 54 25 53 10 0 11 -2 4 -6 -16 -6 -17 -49 -2 -58 6 -5 4
-12 -8 -22 -10 -8 -12 -12 -5 -8 15 8 52 -3 52 -16 0 -5 -9 -9 -20 -9 -17 0
-19 -3 -11 -19 8 -14 7 -22 -4 -31 -9 -7 -18 -10 -22 -6 -3 3 -1 6 5 6 7 0 12
5 12 11 0 6 -5 7 -12 2 -7 -4 -16 -8 -20 -8 -3 0 -10 -4 -15 -9 -4 -5 -3 -6 4
-2 6 3 16 -1 21 -10 9 -16 12 -15 41 5 27 19 32 20 37 7 3 -9 10 -16 15 -16
13 0 11 28 -3 32 -6 2 1 16 17 32 19 19 25 22 20 9 -4 -10 -10 -29 -13 -43 -2
-14 -8 -30 -13 -35 -7 -9 -7 -25 0 -75 1 -3 11 7 24 21 23 27 57 44 57 30 0
-5 -8 -11 -18 -13 -19 -5 -23 -32 -8 -56 9 -14 -8 -16 -33 -2 -12 6 -23 5 -34
-3 -14 -11 -14 -15 -1 -37 8 -14 14 -18 13 -10 -3 28 1 40 11 40 6 0 10 -8 10
-17 0 -15 2 -16 10 -3 5 8 13 11 17 6 4 -4 0 -13 -10 -20 -26 -20 -21 -26 15
-19 28 6 31 4 26 -15 -4 -12 -3 -22 2 -22 4 0 11 21 15 46 7 52 17 52 17 0 0
-23 5 -36 13 -36 8 0 11 8 8 23 -4 17 -1 15 12 -8 9 -16 23 -35 31 -42 21 -16
9 -33 -17 -26 -16 4 -20 2 -17 -8 3 -8 14 -12 24 -11 25 5 26 6 30 43 5 38 14
52 14 21 0 -12 6 -22 13 -22 14 0 40 60 30 69 -3 3 -8 0 -10 -6 -3 -7 -11 -13
-20 -13 -12 0 -12 2 2 16 10 10 13 24 9 36 -4 15 -2 19 7 15 8 -2 13 -9 12
-15 -2 -6 4 -9 12 -6 22 9 33 -46 11 -61 -9 -7 -16 -17 -16 -24 0 -6 -4 -11
-10 -11 -5 0 -10 -6 -10 -14 0 -7 -9 -16 -20 -19 -34 -9 -23 -27 12 -20 28 6
31 4 26 -15 -5 -17 -2 -22 13 -22 21 0 26 -16 7 -22 -7 -3 -3 -7 9 -10 18 -5
22 -2 20 15 -1 16 4 23 21 25 24 4 28 -9 12 -39 -6 -11 -7 -19 -3 -18 26 4 35
-3 31 -24 -3 -17 1 -22 19 -23 13 -1 23 2 23 7 0 5 7 9 15 9 8 0 15 -9 15 -19
0 -11 5 -23 12 -27 8 -5 9 -2 5 9 -5 12 -1 17 13 17 11 0 20 5 20 11 0 5 5 7
10 4 15 -10 12 -35 -4 -29 -19 7 -27 -8 -15 -26 8 -12 12 -12 16 -2 2 6 11 12
19 12 10 0 12 8 8 29 -5 23 -2 32 15 40 23 13 29 36 7 28 -16 -6 -53 29 -42
40 4 4 11 1 15 -6 6 -9 11 -10 15 -2 4 6 12 11 17 11 6 0 8 -4 4 -9 -3 -5 -1
-12 5 -16 5 -3 10 -2 10 3 0 13 46 30 95 36 34 4 38 3 23 -8 -10 -7 -18 -21
-18 -30 0 -9 -5 -16 -11 -16 -5 0 -7 -4 -4 -10 5 -8 16 -8 54 -1 2 1 -1 7 -6
14 -6 8 -5 21 3 37 8 14 14 19 14 13 0 -7 9 -13 20 -13 27 0 25 16 -2 24 -19
5 -20 8 -8 15 10 7 20 5 31 -5 11 -10 19 -12 24 -5 3 6 11 11 17 11 6 0 4 -8
-5 -18 -15 -16 -15 -18 2 -18 14 0 17 7 14 33 -3 25 1 35 14 40 9 4 19 1 21
-5 2 -7 10 -12 18 -12 8 0 14 -8 14 -17 0 -14 3 -13 16 5 9 13 22 21 29 18 7
-2 16 2 19 10 3 8 10 14 15 14 6 0 8 -6 5 -14 -8 -21 14 -30 31 -13 8 9 24 13
36 10 14 -4 17 -8 8 -13 -6 -5 -9 -15 -6 -23 3 -9 1 -17 -4 -19 -6 -2 -7 -12
-1 -27 7 -21 10 -22 15 -7 4 10 11 14 17 11 5 -3 10 3 10 14 0 10 -5 21 -12
23 -9 3 -9 6 0 12 7 4 12 2 12 -3 0 -6 5 -11 11 -11 5 0 7 5 4 10 -3 6 -1 10
5 10 7 0 10 -6 7 -14 -3 -8 0 -20 8 -26 10 -8 14 -8 18 2 4 10 8 10 16 -2 10
-13 13 -12 26 4 8 11 15 15 15 9 0 -7 -5 -15 -10 -18 -7 -4 -7 -12 0 -25 5
-10 10 -28 10 -39 0 -14 6 -21 20 -21 11 0 20 -4 20 -10 0 -5 5 -10 11 -10 6
0 9 6 6 14 -3 8 1 17 9 20 9 3 12 1 9 -4 -3 -6 0 -10 7 -10 9 0 9 -3 -2 -10
-13 -9 -13 -10 0 -10 13 0 13 -1 0 -10 -11 -7 -11 -10 -2 -10 7 0 10 -4 7 -10
-12 -20 8 -9 32 16 13 14 21 29 18 32 -3 4 -10 0 -14 -7 -15 -23 -20 3 -5 29
10 19 13 21 14 8 0 -10 5 -18 11 -18 6 0 8 -9 4 -21 -6 -18 -4 -20 16 -14 21
7 22 6 10 -8 -7 -9 -16 -15 -20 -13 -4 3 -8 -10 -8 -27 -1 -18 1 -26 3 -19 3
6 12 12 20 12 9 0 12 -4 9 -10 -3 -5 1 -10 10 -10 9 0 14 4 11 9 -3 5 6 8 20
7 l25 -1 -26 -23 -27 -23 25 5 c19 3 26 -1 30 -15 3 -10 1 -19 -4 -19 -5 0 -9
-7 -9 -15 0 -8 5 -15 10 -15 6 0 10 5 10 10 0 6 7 10 15 10 13 0 14 4 5 20 -6
11 -9 20 -8 21 50 11 92 -3 53 -17 -8 -4 -15 -10 -15 -16 0 -5 -12 -20 -27
-33 -16 -13 -23 -25 -17 -25 7 0 15 7 18 16 3 8 14 14 23 13 34 -3 42 1 45 23
2 12 9 24 17 26 10 3 12 0 8 -12 -4 -9 -2 -16 3 -16 6 0 10 10 10 23 0 12 5
29 11 37 9 13 10 12 5 -2 -3 -10 1 -21 8 -25 16 -10 30 -41 31 -73 0 -17 5
-24 15 -21 39 10 62 8 67 -5 3 -8 9 -14 14 -14 19 0 -4 28 -34 41 -21 9 -31
20 -29 32 2 10 -3 17 -13 17 -9 0 -13 5 -10 10 5 8 11 7 21 -1 10 -8 14 -8 14
0 0 6 5 11 10 11 6 0 10 -11 10 -25 0 -16 6 -25 15 -25 9 0 18 -7 21 -15 5
-12 10 -10 24 8 16 18 21 20 32 9 11 -11 10 -13 -4 -10 -9 1 -16 -1 -15 -7 1
-5 8 -8 16 -7 7 2 10 -1 7 -7 -4 -5 -2 -12 4 -16 5 -3 10 -1 10 4 0 6 12 11
28 12 32 1 64 12 63 22 -3 24 0 39 5 34 4 -3 15 -2 25 4 13 6 19 6 19 -1 0 -5
7 -10 16 -10 11 0 15 6 11 20 -6 23 -6 23 27 10 31 -11 36 -34 6 -25 -15 5
-18 3 -14 -9 4 -11 0 -16 -15 -16 -24 0 -27 -15 -7 -36 18 -17 59 -5 75 23 10
17 12 17 21 1 6 -10 18 -18 25 -18 8 0 15 -7 15 -15 0 -8 6 -15 14 -15 9 0 12
-9 8 -27 -2 -16 -1 -25 3 -21 10 10 38 -29 31 -41 -7 -11 3 -41 14 -41 4 0 7
16 5 35 -2 19 0 35 3 35 4 0 24 -11 44 -25 41 -27 48 -30 48 -15 0 5 -11 12
-25 16 -35 9 -31 23 6 22 22 -1 33 -7 36 -19 3 -10 19 -25 36 -34 29 -14 30
-14 14 3 -23 25 -21 32 6 32 18 0 19 2 7 10 -13 8 -13 10 1 10 9 0 20 7 23 16
4 9 9 14 12 11 3 -3 0 -16 -6 -29 -10 -19 -10 -21 1 -10 7 6 20 12 28 12 11 0
12 -3 4 -8 -7 -4 -9 -13 -4 -21 12 -18 31 -5 31 21 0 14 5 18 16 14 9 -3 20
-6 25 -6 5 0 9 -5 9 -11 0 -6 -6 -9 -14 -6 -19 8 -27 -3 -13 -17 14 -15 52 -9
69 12 11 13 10 14 -12 8 -22 -6 -23 -6 -6 5 16 10 22 9 32 -5 9 -13 13 -14 17
-4 4 10 8 10 17 -2 10 -13 11 -13 7 0 -2 8 -14 21 -28 27 -14 7 -18 13 -9 13
13 0 13 2 1 9 -8 5 -21 6 -30 3 -13 -5 -14 -3 -4 10 7 8 10 17 7 20 -2 3 2 8
11 12 13 4 15 1 10 -14 -5 -14 -2 -20 9 -20 9 0 16 -6 16 -13 0 -17 36 -38 54
-31 19 7 9 33 -18 45 -18 8 -18 9 4 3 61 -15 80 -16 80 -5 0 7 4 10 10 6 5 -3
7 -12 3 -20 -7 -19 11 -19 27 0 14 17 30 20 30 5 0 -5 -7 -10 -15 -10 -8 0
-15 -7 -15 -15 0 -14 -3 -14 -31 0 -34 18 -59 7 -59 -24 1 -14 2 -14 14 2 8
10 17 14 20 9 3 -6 16 -8 27 -5 20 6 21 3 15 -21 -5 -21 -3 -27 6 -24 7 3 14
10 14 16 1 7 2 19 3 27 0 8 8 15 16 15 8 0 15 9 15 19 0 11 4 22 9 25 4 3 6
-6 3 -20 -4 -23 -3 -24 22 -14 37 14 43 13 21 -4 -19 -13 -18 -14 6 -13 23 2
26 6 24 35 -1 18 0 30 3 27 2 -2 14 0 25 6 13 7 17 7 13 1 -3 -6 4 -18 16 -27
19 -12 20 -17 9 -24 -18 -12 -7 -41 16 -41 16 0 16 2 3 11 -11 8 -8 9 15 4 17
-4 32 -11 33 -16 5 -13 30 -11 39 4 15 23 52 37 98 37 26 0 44 4 41 9 -3 5
-28 7 -56 4 -31 -2 -50 0 -50 7 0 5 9 10 20 10 11 0 20 6 20 13 0 8 4 7 10 -3
7 -10 12 -12 18 -4 12 19 50 26 59 12 4 -8 21 -22 38 -32 27 -18 28 -20 10
-27 -17 -6 -15 -7 7 -6 32 2 43 20 22 37 -17 15 -19 34 -2 24 7 -4 8 -3 4 4
-4 7 -1 12 8 12 9 0 16 5 16 11 0 6 9 9 20 6 11 -3 20 -1 20 5 0 6 8 0 19 -13
16 -20 21 -21 35 -10 10 9 16 10 16 2 0 -6 -4 -11 -10 -11 -14 0 -13 -37 1
-46 8 -4 9 0 4 15 -7 24 0 27 20 8 16 -17 22 -48 12 -64 -5 -8 -3 -13 4 -13 6
0 18 -8 25 -17 16 -22 19 -1 4 28 -8 14 -7 19 2 19 8 0 6 5 -4 11 -10 5 -18
18 -18 28 0 11 -7 21 -15 25 -22 8 -18 21 10 34 20 9 26 8 34 -6 9 -15 10 -14
11 6 0 16 6 22 23 22 21 -1 21 -1 3 -15 -17 -13 -17 -15 -3 -21 10 -3 17 -12
17 -20 0 -8 5 -14 10 -14 6 0 10 7 10 15 0 9 9 15 25 15 22 0 24 3 21 40 -2
22 1 43 5 46 5 3 10 -14 10 -38 1 -24 3 -35 6 -26 2 9 13 16 23 15 13 -1 16
-5 10 -11 -14 -14 -13 -29 1 -20 6 3 16 0 21 -7 7 -10 8 -8 5 9 -3 12 -1 22 4
22 5 0 9 -12 9 -27 0 -21 3 -24 9 -13 6 8 7 18 5 22 -3 4 3 8 13 8 17 1 16 2
-2 16 -11 8 -19 21 -17 28 3 15 -25 29 -39 20 -5 -3 -9 0 -9 6 0 6 10 10 23 9
12 -2 27 0 33 4 7 4 14 -1 17 -13 5 -21 37 -28 37 -9 0 5 -6 7 -12 3 -10 -5
-10 -4 -1 6 10 11 15 11 27 1 14 -12 14 -15 -1 -29 -12 -13 -13 -17 -2 -21 7
-2 15 1 17 8 2 6 8 11 14 11 6 0 17 8 25 18 8 9 12 12 9 5 -8 -16 4 -44 16
-37 5 4 8 14 5 23 -3 14 1 16 25 13 23 -4 27 -1 22 12 -3 9 -1 16 5 16 6 0 11
-7 11 -15 0 -19 68 -65 86 -58 13 5 19 -8 15 -31 -1 -5 5 -6 14 -2 9 3 20 6
23 6 4 0 1 4 -6 9 -7 4 -14 17 -15 29 -1 14 -7 20 -20 19 -13 -1 -21 5 -23 21
-2 12 0 22 4 22 12 0 9 53 -3 63 -5 4 3 4 20 1 16 -4 35 -7 42 -7 8 0 11 -7 7
-19 -3 -10 -1 -18 5 -18 14 0 14 63 0 77 -8 8 -8 13 0 17 6 4 11 2 11 -4 0 -7
9 -9 23 -5 22 7 22 7 2 -10 -20 -16 -20 -16 3 -12 12 3 22 1 22 -4 0 -5 -5 -9
-12 -9 -6 0 -8 -3 -5 -6 4 -4 13 -1 22 6 9 8 15 8 15 2 0 -6 -4 -14 -10 -17
-5 -3 -10 -14 -9 -23 0 -12 3 -11 9 6 5 12 13 22 19 22 5 0 12 -10 16 -22 6
-22 7 -22 16 7 5 19 5 31 -1 33 -13 5 -13 32 0 32 6 0 10 -5 10 -11 0 -5 5 -7
11 -4 6 4 8 14 4 23 -5 13 -2 12 13 -3 13 -14 16 -24 10 -32 -5 -7 -7 -16 -4
-22 4 -5 -3 -7 -16 -3 -21 5 -21 5 -2 -21 19 -26 54 -43 54 -26 0 5 -6 9 -13
9 -9 0 -12 10 -9 32 l5 32 23 -28 c13 -15 24 -22 24 -15 0 7 -10 23 -21 35
l-21 23 33 20 c19 12 40 21 47 21 15 0 16 17 0 22 -7 3 -8 10 -4 17 7 11 10
11 16 0 14 -21 37 -18 51 7 15 28 29 31 29 7 0 -15 2 -16 10 -3 11 18 -13 34
-41 27 -10 -3 -17 -1 -13 4 3 5 16 9 30 9 13 0 32 9 41 19 9 11 20 18 25 15 4
-3 8 1 8 9 0 8 10 17 23 21 31 8 46 6 23 -3 -19 -7 -19 -8 2 -13 12 -4 22 -2
22 4 0 6 6 5 15 -2 12 -10 16 -10 19 1 2 8 7 22 10 32 8 25 40 23 33 -3 -3
-11 0 -23 6 -27 7 -3 9 -3 5 2 -4 4 -3 15 4 22 12 14 4 25 -27 36 -5 3 -7 8
-2 12 4 5 22 -6 40 -23 18 -18 36 -32 39 -32 10 0 6 43 -6 59 -8 11 -8 13 1 8
6 -4 13 -2 16 5 2 7 3 5 2 -4 -2 -9 2 -19 8 -21 13 -4 20 -47 7 -47 -6 0 -10
-7 -10 -16 0 -11 6 -13 19 -9 15 4 21 0 24 -17 4 -21 4 -21 6 3 0 15 -6 39
-14 55 -15 30 -6 54 21 54 8 0 14 8 14 17 0 23 13 8 17 -20 2 -17 1 -19 -7 -7
-6 10 -10 11 -10 3 0 -7 -7 -10 -15 -7 -16 7 -21 -11 -5 -21 5 -3 7 -12 3 -20
-3 -8 0 -15 6 -15 6 0 11 9 11 20 0 16 6 19 30 16 17 -2 33 0 36 5 3 5 -4 9
-15 9 -12 0 -21 4 -21 9 0 14 33 23 40 11 4 -7 16 -2 32 13 23 21 27 22 57 9
18 -7 38 -11 45 -8 6 2 1 8 -11 11 -13 4 -29 20 -36 35 -14 27 -14 27 17 27
17 -1 37 2 43 6 15 10 63 -13 63 -30 0 -7 -10 -13 -21 -13 -18 0 -19 3 -9 14
9 12 7 15 -12 14 -13 -1 -29 -6 -35 -11 -9 -6 -13 -6 -13 2 0 6 -4 11 -10 11
-5 0 -10 -7 -10 -15 0 -14 14 -19 48 -18 6 1 12 -5 12 -13 0 -8 7 -14 16 -14
8 0 12 -4 9 -10 -3 -5 1 -10 9 -10 10 0 13 6 10 15 -4 9 0 15 10 15 10 0 16 9
16 24 0 25 12 40 23 29 4 -3 2 -14 -3 -23 -7 -13 -5 -21 5 -30 17 -14 10 -37
-13 -44 -10 -2 -6 -4 8 -3 21 2 25 8 28 40 2 20 -1 37 -6 37 -5 0 -6 14 -4 31
3 22 1 30 -7 25 -16 -10 -13 13 4 30 13 14 15 11 17 -28 l1 -43 4 38 c3 29 9
37 24 37 21 0 27 -20 7 -20 -7 0 -5 -5 5 -11 26 -15 33 -4 17 27 -12 22 -12
27 0 34 13 8 12 10 -2 10 -10 0 -18 -7 -18 -15 0 -8 -6 -15 -14 -15 -8 0 -13
8 -12 18 0 9 -5 16 -11 14 -7 -1 -13 2 -13 8 0 6 6 10 13 10 7 0 4 7 -7 15
-16 12 -22 12 -28 2 -5 -8 -8 -4 -8 11 0 22 1 22 22 8 12 -9 30 -16 40 -16 20
0 37 22 20 28 -6 2 -8 10 -5 18 3 7 -2 17 -11 20 -9 3 -16 11 -16 16 0 6 6 8
14 5 7 -3 17 -2 22 3 5 5 10 -11 10 -38 1 -25 7 -48 13 -50 6 -2 11 -10 11
-18 0 -16 16 -19 25 -4 9 15 25 12 25 -5 0 -8 5 -15 10 -15 25 0 -1 44 -27 46
-28 2 -33 5 -33 17 0 7 13 23 29 37 17 13 28 27 25 31 -2 4 1 11 7 15 6 4 16
-1 21 -10 6 -10 16 -15 27 -11 16 5 18 0 16 -29 -3 -26 0 -33 11 -29 8 3 14 0
14 -6 0 -6 5 -11 10 -11 6 0 10 7 10 15 0 8 -7 15 -16 15 -13 0 -15 7 -11 35
3 19 1 37 -4 40 -5 4 -9 14 -9 23 0 10 9 4 25 -18 14 -19 25 -44 25 -57 0 -13
3 -23 8 -23 10 0 12 89 1 95 -15 10 -10 21 15 33 19 8 26 8 30 -1 3 -9 7 -8
14 2 5 7 15 10 21 7 6 -4 11 0 11 11 0 13 3 14 8 5 6 -8 15 0 31 29 13 22 20
43 17 46 -3 4 -6 1 -6 -6 0 -6 -8 -11 -17 -9 -14 2 -18 -3 -16 -27 1 -16 0
-24 -3 -17 -5 10 -9 10 -18 -2 -16 -22 -76 -27 -101 -9 -18 14 -18 15 -1 9 13
-4 17 -2 13 8 -8 19 36 58 56 50 20 -7 23 -26 5 -23 -39 5 -49 -1 -38 -21 14
-26 40 -26 47 0 3 11 9 17 14 14 13 -8 10 8 -5 29 -14 18 -56 24 -56 7 0 -6
-8 -5 -20 2 -11 7 -20 18 -20 25 0 7 -4 13 -10 13 -5 0 -10 7 -10 15 0 19 -9
19 -31 -1 -17 -15 -19 -15 -35 0 -15 16 -14 17 12 11 22 -5 25 -4 14 4 -12 8
-12 11 3 17 10 4 23 2 30 -5 6 -6 17 -11 24 -11 11 0 11 4 1 20 -7 10 -21 18
-33 17 -17 -2 -20 4 -20 33 0 32 -2 35 -32 37 -18 1 -33 -3 -33 -8 0 -5 -11
-4 -24 3 -22 9 -23 13 -10 25 7 8 19 11 25 7 8 -5 9 -3 4 6 -5 8 -3 11 6 8 8
-3 13 -12 11 -19 -1 -8 4 -7 12 5 8 10 19 15 24 12 5 -3 15 1 21 8 8 9 8 16 2
20 -6 4 -8 13 -4 21 7 19 3 18 -25 -5z"/>
</g>
</svg>
